<svg width="694" height="708" viewBox="0 0 694 708" fill="none" xmlns="http://www.w3.org/2000/svg">
<path d="M130.667 207.611C130.667 207.611 99.1851 220.065 94.5555 250.315C89.9259 280.565 161.463 369.176 161.463 369.176L382.074 250.296L312.324 127.889L130.667 207.611Z" fill="#F2CCFF"/>
<path d="M179.444 236.204C179.444 236.204 156.231 260.037 149.111 286.408C141.991 312.778 141.074 359.87 142.259 377.509C176.889 409.556 313.768 382.704 313.768 382.704L445.676 227.537C445.676 227.537 423.315 185.083 411.963 173.445C400.611 161.806 363.815 147.333 321.361 164.417C296.444 199.778 179.444 236.204 179.444 236.204Z" fill="#B517E2"/>
<g style="mix-blend-mode:multiply">
<path d="M169.083 248.528C169.083 248.528 220.296 264.963 277.944 242.694C335.593 220.426 346.037 157.704 346.037 157.704L321.333 164.426L179.444 236.204L169.083 248.528Z" fill="#B517E2"/>
</g>
<path d="M377.565 440.926C377.565 440.926 442.315 441.343 460.509 445.991C478.704 450.639 526.861 559.63 546.787 570.065C566.713 580.5 583.639 563.167 605.593 550.296C627.546 537.426 647.667 521.852 648.296 515.352C648.926 508.852 639.602 482.88 631.537 477.639C623.472 472.398 600.056 472.028 587.565 480.028C569.213 430.028 543.121 357.111 519.195 347.074C495.269 337.037 422.759 332.259 422.759 332.259L377.565 440.926Z" fill="#B517E2"/>
<g style="mix-blend-mode:multiply" opacity="0.51">
<path d="M445.676 393.204C445.676 393.204 498.398 398.972 512.963 418.593C527.528 438.213 556.389 558.269 588.695 561.111C589.213 600 522.306 614.046 522.306 614.046L361.926 435.843L445.676 393.204Z" fill="#B517E2"/>
</g>
<path d="M203.602 431.092C203.602 431.092 243.417 514.602 279.528 537.379C315.639 560.157 381.065 558.315 399.111 573.231C417.157 588.148 413.343 659.805 431.38 678.787C449.417 697.768 474.796 709.398 498.518 707.259C522.241 705.12 541.222 693.741 541.463 683.065C541.704 672.389 540.75 663.13 529.602 657.435C518.454 651.741 502.75 647 502.074 640.361C501.398 633.722 488.787 532.648 483.556 505.176C478.324 477.704 437.694 439.491 385.333 420.241C335.75 378.722 259.593 396.509 259.593 396.509L203.602 431.092Z" fill="#B517E2"/>
<g style="mix-blend-mode:multiply">
<path d="M215.185 453.435C215.185 453.435 260.88 455.769 301.917 437.741C294.074 395.982 269.88 383.648 269.88 383.648L203.602 431.093L215.185 453.435Z" fill="#B517E2"/>
</g>
<path d="M278.417 17.3333C242.63 -1.82415 167.63 -8.2871 121.333 49.1296C75.0372 106.546 98.1112 166.093 117.565 193.815C137.935 222.907 207.954 267.37 282.685 225.611C357.417 183.852 365.25 63.8333 278.417 17.3333Z" fill="#B517E2"/>
<path d="M272.259 52.4444C304.046 60.037 324.694 104.639 314.019 147.343C303.343 190.046 266.565 218.759 225.287 218.991C184.009 219.222 142.963 191.037 143.185 138.333C143.407 87.6851 203.232 35.9629 272.259 52.4444Z" fill="#F2CCFF"/>
<g style="mix-blend-mode:multiply">
<path d="M180.676 386.019C222.093 366.796 191.111 322.908 232.398 312.926C286.833 320.667 301.889 317.889 301.889 317.889C301.889 317.889 197.75 409.352 180.676 386.019Z" fill="#B517E2"/>
</g>
<path d="M215.185 268.63L284.111 445.991L381.62 443.667L470.824 387.204L497.398 306.537L432.871 112.945L401.546 203.574L320.408 268.102L215.185 268.63Z" fill="#EBA4FF"/>
<path d="M180.676 386.019C203.528 384.167 215.167 369.287 222.093 362.685C225.62 359.315 224.917 356.361 223.139 346.639C221.361 336.917 227.528 326.944 235.954 322.676C240.583 335.13 246.269 337.491 250.657 336.907C255.046 336.324 259.556 310.102 273.907 310.333C288.259 310.565 299.769 329.556 301.685 339.037C303.602 348.519 294.333 375.565 282.704 394.546C271.074 413.528 254.667 437.028 217.732 444.38C180.796 451.731 159.796 432.87 147.694 409.028C143.611 400.981 142.139 389.861 142.269 377.472C142.269 377.472 150.537 388.389 180.676 386.019Z" fill="#B517E2"/>
<path d="M455.093 179.62C455.093 179.62 459.491 193.926 456.528 199.5C453.565 205.074 449.528 209.685 446.565 216.824C443.602 223.963 447.991 250.87 461.037 255.491C474.083 260.111 484.88 248.018 488.324 241.018C491.769 234.018 489.861 215.639 484.759 202.824C479.657 190.009 470.065 178.62 455.093 179.62Z" fill="#B517E2"/>
<path d="M470.093 1.87967L473.019 7.80559C473.194 8.16467 473.454 8.47552 473.777 8.71111C474.1 8.94671 474.475 9.09993 474.87 9.15744L481.417 10.0834C481.874 10.1489 482.304 10.3414 482.658 10.6391C483.012 10.9368 483.275 11.3277 483.418 11.7674C483.56 12.2071 483.577 12.6781 483.466 13.1267C483.354 13.5754 483.119 13.9838 482.787 14.3056L478.056 18.9352C477.768 19.214 477.553 19.5588 477.429 19.9395C477.304 20.3203 477.275 20.7257 477.343 21.1204L478.454 27.6019C478.532 28.0564 478.482 28.5239 478.309 28.9514C478.136 29.3789 477.846 29.7495 477.474 30.0211C477.101 30.2928 476.659 30.4547 476.199 30.4886C475.739 30.5225 475.279 30.4271 474.87 30.213L469.009 27.1389C468.656 26.9516 468.261 26.8537 467.861 26.8537C467.461 26.8537 467.067 26.9516 466.713 27.1389L460.852 30.213C460.443 30.4296 459.982 30.5272 459.52 30.4945C459.058 30.4619 458.615 30.3003 458.241 30.0283C457.867 29.7562 457.576 29.3846 457.403 28.9557C457.229 28.5267 457.179 28.0577 457.259 27.6019L458.38 21.1204C458.447 20.7257 458.418 20.3203 458.294 19.9395C458.169 19.5588 457.954 19.214 457.667 18.9352L452.935 14.3056C452.603 13.9838 452.368 13.5754 452.257 13.1267C452.145 12.6781 452.162 12.2071 452.305 11.7674C452.447 11.3277 452.71 10.9368 453.064 10.6391C453.418 10.3414 453.848 10.1489 454.306 10.0834L460.852 9.15744C461.247 9.09993 461.623 8.94671 461.945 8.71111C462.268 8.47552 462.528 8.16467 462.704 7.80559L465.63 1.87967C465.833 1.46112 466.15 1.10825 466.545 0.861397C466.94 0.614543 467.396 0.483643 467.861 0.483643C468.327 0.483643 468.783 0.614543 469.177 0.861397C469.572 1.10825 469.889 1.46112 470.093 1.87967V1.87967Z" fill="#FEC272"/>
<path d="M156.833 629L159.287 633.972C159.433 634.274 159.652 634.535 159.923 634.732C160.195 634.929 160.51 635.056 160.843 635.102L166.333 635.898C166.716 635.954 167.076 636.116 167.371 636.365C167.667 636.615 167.887 636.942 168.006 637.31C168.126 637.678 168.14 638.072 168.047 638.447C167.954 638.823 167.758 639.165 167.482 639.435L163.509 643.306C163.265 643.541 163.084 643.834 162.98 644.157C162.877 644.48 162.855 644.824 162.917 645.157L163.843 650.62C163.906 651.002 163.862 651.393 163.716 651.751C163.57 652.108 163.327 652.418 163.015 652.646C162.703 652.874 162.334 653.01 161.948 653.04C161.563 653.07 161.177 652.992 160.833 652.815L155.926 650.231C155.629 650.076 155.298 649.996 154.963 649.996C154.628 649.996 154.297 650.076 154 650.231L149.111 652.796C148.768 652.977 148.381 653.058 147.994 653.03C147.607 653.002 147.236 652.866 146.923 652.637C146.609 652.408 146.366 652.097 146.221 651.737C146.076 651.377 146.035 650.984 146.102 650.602L147.028 645.139C147.085 644.805 147.06 644.461 146.955 644.139C146.851 643.816 146.669 643.524 146.426 643.287L142.463 639.417C142.186 639.147 141.99 638.804 141.898 638.429C141.805 638.053 141.819 637.659 141.939 637.291C142.058 636.924 142.278 636.596 142.573 636.347C142.869 636.097 143.228 635.936 143.611 635.88L149.093 635.083C149.426 635.037 149.742 634.909 150.015 634.713C150.288 634.516 150.508 634.255 150.658 633.954L153.111 628.981C153.284 628.635 153.55 628.343 153.88 628.14C154.21 627.937 154.591 627.83 154.978 627.832C155.366 627.834 155.745 627.944 156.073 628.151C156.401 628.357 156.664 628.651 156.833 629V629Z" fill="#FEC272"/>
<g style="mix-blend-mode:soft-light" opacity="0.48">
<path d="M244.512 105.684C267.3 100.661 284.332 90.0555 282.555 81.9954C280.779 73.9353 260.866 71.4729 238.079 76.4954C215.292 81.518 198.26 92.1236 200.036 100.184C201.813 108.244 221.725 110.706 244.512 105.684Z" fill="#B517E2"/>
</g>
<g style="mix-blend-mode:multiply">
<path d="M296.407 365.63C296.407 365.63 270.194 342.204 265.444 342.204C260.694 342.204 248.046 360.722 250.898 365.63C253.75 370.537 268.398 386.611 284.481 391.556C289.694 381.611 296.407 365.63 296.407 365.63Z" fill="#B517E2"/>
</g>
<g style="mix-blend-mode:multiply" opacity="0.5">
<path d="M320.407 268.102L381.62 443.667L470.824 387.204L401.546 203.574L320.407 268.102Z" fill="#F2CCFF"/>
</g>
<g style="mix-blend-mode:multiply">
<path d="M488.806 538.713C479.631 546.314 469.32 552.429 458.25 556.833C447.87 560.833 444.361 569.018 447.5 584.037C450.639 599.055 452.398 622.472 458.88 628.639C465.361 634.805 487.657 631.528 499.213 617.194C495.593 588.954 488.806 538.713 488.806 538.713Z" fill="#B517E2"/>
</g>
<g style="mix-blend-mode:multiply">
<path d="M549.222 385.593C549.222 385.593 536.259 391.241 537.491 400.25C538.722 409.259 551.963 452.806 557.185 456.731C562.407 460.657 577.861 453.694 577.861 453.694C561.991 408.731 549.222 385.593 549.222 385.593Z" fill="#B517E2"/>
</g>
<path d="M2.18521 489.796C-8.12034 468.426 25.463 445.556 54.0371 447.204C82.6111 448.852 94.6204 475.232 104.741 485.074C125.88 505.611 125.213 525.704 110.574 534.343C95.9352 542.982 15.8241 518.065 2.18521 489.796Z" fill="#B517E2"/>
<path d="M578.63 158.731C570.296 151.435 578.871 117.139 598.556 109.111C618.241 101.083 642.685 109.861 647.908 123.62C653.13 137.38 595.713 173.676 578.63 158.731Z" fill="#B517E2"/>
<path d="M675.092 177.083C670.824 183.167 667.981 200.491 676.991 203.574C686 206.657 692.815 188.833 689.648 179.556C686.481 170.278 677.944 173.018 675.092 177.083Z" fill="#B517E2"/>
<path opacity="0.44" d="M681.574 36.4999C674.852 39.6666 663.769 53.2777 670.065 60.4351C676.361 67.5925 691.111 55.4999 692.972 45.8795C694.833 36.2592 686.065 34.3888 681.574 36.4999Z" fill="#B517E2"/>
<path opacity="0.44" d="M49.4629 579.713C43.6481 575.083 26.5463 571.148 22.8981 579.954C19.25 588.759 36.6203 596.62 46.0463 594.083C55.4722 591.546 53.3333 582.806 49.4629 579.713Z" fill="#B517E2"/>
<g style="mix-blend-mode:multiply" opacity="0.64">
<path d="M99.6759 479.213C89.3333 481.157 90.9999 490.407 94.3148 498.787C97.6296 507.167 109.296 509.555 117.528 501.898C112.185 489.185 99.6759 479.213 99.6759 479.213Z" fill="#B517E2"/>
</g>
<g style="mix-blend-mode:multiply" opacity="0.64">
<path d="M40.2222 465.259C32.8148 466.083 26.7778 476.806 32 485.5C37.2222 494.195 47.1759 500.528 52.8704 498.158C58.5648 495.787 59.5185 482.972 55.4074 474.75C51.2963 466.528 47.3426 464.463 40.2222 465.259Z" fill="#B517E2"/>
</g>
<g style="mix-blend-mode:multiply" opacity="0.64">
<path d="M624.796 116.5C620.732 117.796 616.611 122.194 616.972 126.944C617.333 131.694 621.482 135.843 625.982 135.278C630.482 134.713 634.315 127.444 633.389 122.222C632.463 117 627.898 115.519 624.796 116.5Z" fill="#B517E2"/>
</g>
<g style="mix-blend-mode:multiply" opacity="0.64">
<path d="M581.75 125.759C581.75 125.759 587.306 131.315 586.38 137.62C585.454 143.926 575.88 143.343 575.88 143.343C575.88 143.343 577.306 132.593 581.75 125.759Z" fill="#B517E2"/>
</g>
</svg>
